<?xml version="1.0" encoding="UTF-8"?><svg id="a" xmlns="http://www.w3.org/2000/svg" viewBox="0 0 1920 1080"><defs><style>.b{fill:#fff;}</style></defs><path class="b" d="M2.59,455c-6.3-45.01-.39-82.6,10-120.15,10.32-37.29,26.13-72.22,44.28-105.9,18.63-34.58,40.39-67.36,64.55-98.63,34.16-44.22,72.79-83.13,122.16-109.95,44.02-23.91,88.63-28.25,135.59-5.06,41.1,20.29,80.9,42.89,121.05,64.79,21.11,11.52,42.99,22.42,60.46,40.61,23.55,24.5,38.29,51.98,36.24,86.19-1.01,16.88,6.85,25.48,20.49,31.53,15.88,7.04,30.33,16.67,45.61,24.8,5.53,2.95,10.39,4.98,17.72,.15,20.38-13.43,43.94-18.84,68.1-19.09,13.8-.14,27.19,4.79,39.55,11.2,55.4,28.74,111.12,56.91,165.9,86.78,38.06,20.75,75.88,42.05,114.16,62.3,51.08,27.03,101.52,55.24,152.97,81.59,38.47,19.7,75.57,42.07,114.06,61.73,39.21,20.02,77.78,41.24,116.68,61.78,28.83,15.23,57.85,30.27,86.3,46.33,36.99,20.89,75.43,39.2,113,59.07,29.89,15.81,59.03,33.09,89.22,48.31,38.54,19.43,76.16,40.58,114.76,59.91,29.08,14.56,57.28,30.88,86.35,45.6,29.9,15.14,59.09,31.67,88.66,47.48,26.43,14.13,52.91,28.18,79.43,42.14,26.54,13.98,53.18,27.76,79.73,41.72,17.08,8.98,34.08,18.11,51.1,27.22,25.31,13.55,50.52,27.26,75.9,40.67,32.19,17.01,64.48,33.85,96.78,50.66,37.41,19.47,75.6,37.57,112.12,58.58,40.07,23.05,81.65,43.17,122.22,65.21,37.32,20.28,75.31,39.57,113.34,58.65,27.88,13.99,54.68,30.11,82.3,44.64,28.58,15.05,58,28.56,86.26,44.16,27.56,15.21,55.27,30.29,83.16,44.72,28.28,14.63,56.24,29.89,84.54,44.48,40.6,20.94,80.82,42.56,120.9,64.47,27.43,15,55.59,28.64,83.07,43.55,28,15.19,55.69,30.98,83.3,46.88,28.49,16.41,57.1,32.76,85.08,49.88,29.87,18.26,59.48,37.16,89.02,56.06,34.62,22.16,69.17,44.42,103.2,67.44,51.45,34.81,102.58,70.08,151.94,107.87,36.05,27.6,72.67,54.45,108.55,82.26,36.72,28.46,72.88,57.63,108.67,87.27,31.48,26.08,63.07,52.06,92.96,79.9,33.12,30.84,41.08,65.45,22.93,110.11-21.79,53.61-48.84,104.83-79.9,153.59-15.12,23.74-31.49,47.38-54.8,64.68-26.54,19.7-55.93,25.41-87.89,17.98-49.09-11.41-97.84-23.97-146.25-38.19-40.06-11.77-80.25-22.83-119.98-35.91-36.87-12.13-73.71-24.36-110.63-36.27-37.03-11.95-73.24-25.97-109.74-39.17-45.28-16.38-89.75-35.11-134.03-54.09-52.11-22.33-103.94-45.37-154.96-70.13-49.22-23.89-98.1-48.44-146.57-73.81-40.73-21.32-81.51-42.56-122.3-63.79-40.3-20.97-80.74-41.66-120.9-62.86-28.56-15.08-56.79-30.81-85.16-46.25-29.03-15.8-58.04-31.62-87.07-47.41-38.32-20.85-76.53-41.91-114.7-63.01-31.07-17.18-62.27-34.26-93.69-50.87-27.85-14.73-54.99-30.81-82.57-46.05-29.7-16.42-59.61-32.48-89.34-48.85-51.17-28.16-102.09-56.76-153.48-84.5-24.17-13.05-48.89-25.35-72.62-38.96-28.69-16.46-57.95-31.97-86.44-48.84-32.74-19.38-66.66-36.78-100.03-55.12-36.43-20.03-72.83-40.12-109.21-60.25-28.58-15.82-57.06-31.82-85.67-47.6-27.77-15.31-54.75-32.18-82.84-46.73-39.42-20.42-77.47-43.26-116.84-63.77-20.13-10.49-39.62-22.63-59.48-33.88-26.21-14.86-52.54-29.48-79.12-43.7-39.99-21.39-79.22-44.21-118.85-66.28-31.38-17.48-63.31-34.01-94.19-52.31-28.45-16.86-57.15-33.52-86.19-49.06-50.72-27.14-100.08-56.63-150.56-84.15-39.61-21.59-78.51-44.73-117.96-66.63-39.3-21.82-78.29-44.27-118.03-65.37-32.93-17.48-66.18-34.61-97.09-55.75-32.54-22.26-45.14-53.88-42.68-91.94,.62-9.59-1.01-15.57-9.91-19.31-14.36-6.02-26.4-16.44-41.2-21.73-5.7-2.04-10.09-2-15.21,2.33-10.25,8.68-21.94,15.06-34.53,20.21-27.91,11.42-54.41,12.46-82.38-1.83-44.93-22.96-89.27-46.8-132.98-72.01-15.03-8.67-30.92-16.38-46.03-25.1C29.39,537.11,5.9,498.93,2.59,455Zm4084.69,1727.69c-20.22-12.5-35.35-28.4-52.04-42.24-42.73-35.44-85.97-70.24-129.9-104.15-24.72-19.09-48.97-38.8-74.33-57.12-30-21.66-60.39-42.9-89.53-65.6-17.56-13.68-36.32-25.56-54.21-38.6-19.72-14.37-39.51-29.11-60.61-41.53-19.01-11.19-36.42-24.64-55.05-36.3-16.35-10.24-32.31-21.15-48.86-31.04-18.9-11.29-36.98-23.83-55.74-35.28-26.4-16.11-53.5-31.08-80.33-46.49-29.93-17.19-59.77-34.54-89.87-51.41-31.52-17.66-63.61-34.3-95.45-51.37-29.14-15.62-58.61-30.78-88.01-45.93-42.48-21.9-84.32-45.19-126.42-67.9-49.49-26.69-99.39-52.64-149.45-78.17-40.27-20.54-79.92-42.27-120.55-62.18-43.5-21.31-85.02-46.65-128.33-68.4-60.48-30.37-119.24-63.92-179.55-94.58-38.17-19.41-75.3-40.87-113-61.21-4.96-2.68-9.69-3.16-15.49,.72-24.45,16.36-44.97,37.32-63.27,59.53-32.81,39.82-63.46,81.31-89.83,126.13-17.82,30.29-35.21,60.83-52.36,91.48-7.02,12.55-14.67,25.19-19.77,38.39-9.28,24.02-20.29,47.3-28.79,71.75-8.8,25.33-15.56,50.33-16.14,77-.14,6.29,2.44,9.83,8.57,13.84,23.45,15.33,48.8,27.07,72.94,41,45.97,26.53,93.23,50.66,139.54,76.51,43.56,24.31,87.03,48.77,130.71,72.87,45.22,24.96,90.83,49.26,135.78,74.72,29.19,16.54,58.09,33.71,88.04,48.77,28.67,14.43,56.42,30.53,84.92,45.27,32.76,16.95,64.82,35.3,97.49,52.54,33.91,17.89,67.73,36.08,101.26,54.62,52.21,28.87,105.04,56.57,158,83.93,38.96,20.12,78.37,39.56,118.01,58.46,47.99,22.89,96.43,44.75,144.81,66.7,47.94,21.75,97.04,41.03,145.97,60.53,34.84,13.88,70.01,27.05,105.47,39.25,43.07,14.82,86.6,28.28,129.92,42.37,46.39,15.1,93.18,28.9,140.3,41.46,32.96,8.79,65.48,19.27,99.27,25.15,8.5,1.48,12.7-1.21,14.81-6.68,7.84-20.38,16.31-40.45,25.53-60.24,1.59-3.41,1.13-5.44-3.8-7.06-27.06-8.87-53.95-18.3-80.72-28.01-25.25-9.17-50.22-19.11-75.43-28.38-33.24-12.22-66.05-25.59-99.33-37.6-24.27-8.76-48.22-18.45-72.32-27.53-26.48-9.98-52.25-22.33-78.51-33.15-48.04-19.79-95.13-41.74-142.68-62.59-43.73-19.17-86.67-40.42-129.71-61.24-43.58-21.08-87.14-42.26-130.49-63.79-37.01-18.38-74.03-36.99-110.3-56.94-23.96-13.18-48.68-24.99-72.95-37.61-13.99-7.27-27.69-15.11-41.67-22.4-26.12-13.63-52.46-26.86-78.52-40.61-27.19-14.34-54.09-29.21-81.23-43.65-30.63-16.3-61.48-32.19-92.05-48.61-28.27-15.18-56.18-31.03-84.46-46.19-26.54-14.22-53.67-27.36-79.97-42-31.65-17.62-63.73-34.38-95.76-51.26-14.42-7.59-29.15-15.43-41.62-25.73-39.48-32.61-45.84-98.26-12.03-136.11,30.26-33.87,71.4-49,116.16-25.54,20.72,10.86,41,22.5,61.68,33.36,38.33,20.13,76.82,39.94,114.84,60.68,31.85,17.37,64.84,32.7,96.46,50.46,24.88,13.98,50.52,26.44,75.53,40.12,27.6,15.11,54.74,31.22,83.12,44.71,29.42,13.99,57.57,30.26,86.35,45.34,28.39,14.87,57,29.41,84.87,45.34,27.36,15.64,55.96,29.09,83.86,43.8,37.37,19.7,74.4,40.05,111.93,59.43,28.96,14.95,57.32,30.99,86.59,45.42,21.58,10.64,43.04,21.91,63.88,33.93,22.55,13.02,46.12,23.88,68.95,36.22,27.3,14.75,54.13,30.49,82.15,43.72,29.95,14.13,58.61,30.63,87.83,46.01,30.4,16.02,61.11,31.56,91.02,48.59,25.61,14.58,52.13,27.49,78.44,40.78,28,14.14,54.44,31.36,82.39,45.61,31.08,15.85,61.76,32.39,92.37,49.09,12.37,6.75,12.03,7.1,19.83-5.33,13.65-21.74,26.3-44.24,42.96-63.83,9.26-10.89,17.45-22.54,27.86-34.06Zm-1834.61-1101.63c-22.22-11.73-42.94-22.85-63.82-33.66-28.33-14.66-57.47-27.91-84.99-43.95-26.93-15.69-54.89-29.42-82.37-43.87-37.42-19.68-75.34-38.67-112.6-58.59-38.77-20.73-77.79-41.08-116.3-62.34-29.12-16.07-58.91-30.91-88.22-46.64-42.32-22.71-84-46.68-126.84-68.37-47.45-24.02-93.84-50-140.95-74.63-38.54-20.15-76.88-40.86-114.98-61.92-30.68-16.96-62.05-32.68-93-49.16-28.92-15.4-57.59-31.27-86.56-46.57-25.48-13.46-51.91-25.24-76.66-39.89-28.44-16.84-57.91-31.72-86.9-47.43-28.92-15.68-58.18-30.88-87.38-46.11-37.28-19.44-74.94-38.33-111.12-59.67-35.37-20.86-63.74-11.45-88.11,5.47-23.56,16.35-43.8,36.34-62.96,58.16-19.4,22.09-37.81,45.09-53.48,69.33-30.93,47.84-58.92,97.67-77.71,152.06-10.72,31.04-20.25,62.28-21.54,95.2-1.04,26.58,6.73,49.76,31.79,63.86,11.09,6.24,21.75,13.39,33.24,18.76,27.54,12.87,53.51,28.7,79.76,43.72,41.52,23.76,83.45,46.84,125.14,70.26,38.91,21.86,77.65,44.1,117.11,65.09,52.55,27.95,103.87,58.2,155.69,87.5,41.93,23.7,83.78,47.54,125.75,71.16,18.67,10.51,37.76,20.28,56.28,31.05,23.85,13.88,48.54,26.32,72.23,40.34,19.8,11.72,40.17,22.45,59.97,34.19,36.63,21.72,74.48,41.37,111.76,62.02,28.34,15.7,56.49,31.72,84.86,47.36,18.01,9.93,36.33,19.46,54.02,29.8,18.53,10.83,37.69,20.52,56.15,31.5,28.92,17.2,58.9,32.63,88.37,48.91,28.1,15.53,56.1,31.25,84.2,46.79,27.56,15.24,55.24,30.25,82.76,45.54,26.32,14.61,52.51,29.45,78.76,44.19-1.36-8.24,6.41-12.3,6.5-19.32,.36-27.8,11.14-53.37,20.67-78.5,13.89-36.63,30.63-72.26,49.97-106.59,20.8-36.93,40.84-74.15,64.16-109.73,20.25-30.89,41.44-61.02,64.19-89.9,21.3-27.02,43.66-53.53,73.16-75.44Zm167.59,413.24c-27.88,3.05-41.82,13.19-54.65,37.58-16.26,30.91-5.55,71.62,21.71,85.3,13.12,6.59,26.44,13.39,38.97,21.13,17.51,10.82,35.79,20.26,53.98,29.61,39.45,20.3,78.29,41.75,117.57,62.35,36.33,19.05,72.27,39.01,108.52,58.3,30.68,16.33,61.67,32.08,92.34,48.44,28.79,15.36,57.21,31.43,86.03,46.74,37.45,19.89,75.11,39.39,112.74,58.94,37.59,19.54,74.99,39.48,112.99,58.21,28.3,13.95,56.76,27.72,84.94,41.79,50.99,25.46,101.95,50.98,153.53,75.19,36.05,16.92,72.26,33.49,108.74,49.53,31.14,13.68,62.02,27.99,93.42,41.16,30.71,12.88,61.34,25.89,92.28,38.24,28.16,11.24,56.36,22.48,84.51,33.79,38.46,15.44,76.62,31.83,115.74,45.4,34.28,11.89,68.36,24.33,102.58,36.34,21.07,7.4,21.31,7.75,31.47-13.31,2.95-6.12,6.83-11.56,9.91-17.53,7.18-13.9,7.12-15.2-6.82-21.69-35.68-16.61-69.5-36.7-104.2-55.13-33.03-17.54-66-35.17-99.05-52.67-31.07-16.44-62.48-32.27-93.21-49.31-16.89-9.37-33.92-18.57-50.87-27.79-37.71-20.51-76.47-39.09-114.6-58.83-38.92-20.15-77.51-40.92-116.43-61.08-28.53-14.78-56.63-30.38-84.86-45.67-30.06-16.28-60.97-30.94-90.56-48.19-25.35-14.77-53.07-25.49-78.5-40.14-35.43-20.4-72.06-38.45-107.99-57.85-29.24-15.78-58.55-31.43-88.3-46.3-37.79-18.88-73.89-41.13-111.63-60.15-43.9-22.12-86.59-46.47-130.64-68.32-39.27-19.48-76.95-42.17-116.22-61.68-13.71-6.81-26.57-15.04-40.37-21.7-26.08-12.59-51.06-27.42-76.74-40.86-19.32-10.11-37.86-23.24-56.33-19.88ZM443.59,628.53c33.51-130.82,101.36-240,196.12-334.24-25.23-14.02-49.95-26.47-73.33-41.07-29.44-18.38-55.92-13.76-82.67,5.35-40.21,28.74-68.15,68-93.59,109.04-16.12,26-29.11,53.76-39.6,82.85-10.98,30.44-15.45,61.3-12.77,93.07,1.06,12.52,5.77,25.93,16.9,33.14,15.43,9.99,30.79,20.19,47.8,27.94,13.71,6.25,27.62,13.06,41.15,23.9Zm-105.22-18.63c-30.88-22.54-39.64-53.4-38.1-88.67,.78-17.79,4.57-34.97,9.03-52.06,7.59-29.07,19.75-56.29,33.08-83.12,9.43-18.98,20.75-36.68,32.13-54.51,11.62-18.21,25.02-34.85,38.87-51.16,12.59-14.83,28.53-26.35,42.74-39.55,22.9-21.26,48.7-33.18,79.85-33.69q21.01-.34,16.43-21.52c-.55-2.53-1.1-5.1-2.03-7.5-6.32-16.24-15.18-30.28-34.25-32.79-15.45-2.03-30.11,1.66-44.16,8.45-15.86,7.66-29.65,17.88-43.5,28.86-40.79,32.33-72.5,72.1-100.55,115.26-16.44,25.29-30.53,51.81-44,78.86-24.48,49.15-39.44,100.52-42.1,155.28-.9,18.63,.2,36.97,6.83,55.29,12.69,35.08,56.86,53.56,89.74,22.58Zm-.81-383.1c-2.26-1.84-4.48-4.12-7.13-5.72-19.67-11.88-40.47-21.58-60.93-31.98-29.52-15.01-58.09-31.9-87.11-47.91-5.42-2.99-10.76-9.39-17.25-1.92-18,20.73-33.65,43.14-47.19,67.03-2.7,4.76-2.74,6.58,3.4,10.01,37.28,20.8,75.72,39.4,112.78,60.65,14.55,8.34,29.22,17.38,45.45,23.06,5.07,1.77,8.2,3.65,11.01-2.46,11.81-25.64,30.69-46.55,46.97-70.77Zm-101.39,178.05c3.03-14.2,10.6-25.31,14.93-37.76,4.38-12.59,12.35-23.55,17.99-35.55,2.34-4.98,6.08-11.53-4.26-15.84-13.62-5.69-26-14.62-39.2-21.11-31.28-15.37-61.75-32.14-92.06-49.23-8.04-4.54-16.62-7.76-24.69-12.14-1.65-.9-4.78-4.59-7.49,.36-13.13,23.88-24.98,48.34-35.48,73.5-2.31,5.54-.66,7.01,3.63,9.33,17.96,9.68,35.47,20.21,53.66,29.42,37.6,19.03,73.29,41.71,112.95,59.03Zm3885.98,1822.59c-.84-2.95-1.64-8.05-3.74-12.55-2.6-5.56-6.85-6.96-11.68-1.92-5.66,5.91-11.9,11.37-16.86,17.81-25.5,33.14-46.47,69.24-67.34,105.35-19.43,33.61-34.7,69.35-52.05,104.03-4.03,8.06-6.09,17.2-8.4,26.01-2.34,8.9,2.11,14.61,10.34,13.6,3.47-.42,6.5-2.66,9.65-4.43,23.05-13,37.53-34.22,50.86-55.6,16.24-26.04,29.62-53.85,44.68-80.64,15.03-26.74,28.7-54.12,39.88-82.66,3.32-8.47,5.36-17.62,4.66-29.01ZM396.25,162.97c-49.18-24.6-97.66-50.23-145.35-77.41-6.95-3.96-15.47-12.37-25.75-5.62-14.3,9.38-26.02,21.73-37.69,34-3.15,3.31-2.46,5.04,3.35,8.67,22.88,14.29,47.33,25.53,70.66,38.86,26.99,15.42,54.78,29.44,82.14,44.22,6.15,3.32,10.17,4.05,15.71-2.61,8.48-10.2,18.69-19.12,29.04-27.52,4.47-3.63,6.3-7.7,7.89-12.59ZM58.31,333.6c-7.09,15.23-10.82,29.17-12.29,44.24-.93,9.48,1.05,14.06,9.47,17.96,19.84,9.19,39.62,19.03,58.26,30.07,28.92,17.14,60,30.22,88.08,48.71,6.7,4.41,10.75,6.21,13.58-4.62,2.82-10.82,3.97-22.09,9.25-32.6,3.51-6.97,1.69-14.08-8.51-19.34-52.74-27.19-104.73-55.83-157.84-84.43Zm148.24,207.46c.93-7.83,1.47-16.05,2.98-24.09,1.92-10.2-.18-16.3-10.57-21.92-28.77-15.57-57.93-30.41-86.45-46.5-22.57-12.73-44.95-26.31-69.52-36.01-.79,13.5,2.06,25.66,3.37,37.96,.37,3.45,1.3,6.46,5.36,8.64,20.09,10.77,39.56,22.72,59.78,33.21,31.58,16.39,62.54,33.97,95.05,48.71ZM440.98,132.75c-4.01-2.07-7.31-5.51-12.04-7.8-40.99-19.85-80.63-42.24-120.41-64.37-27.45-15.27-39.57-14.43-59.15,2.45,6.53,6.82,15.85,8.91,23.64,13.65,18.65,11.34,38.09,21.41,57.4,31.64,20.13,10.66,40.87,20.2,60.62,31.5,22.27,12.74,21.97,13.44,42.98-.3,2.38-1.56,6.19-1.87,6.98-6.76Zm-226.66,458.93c-1.75-8.39-2.7-15.45-4.9-22.1-.76-2.3-.34-6.03-4.42-7.19-12.39-3.54-22.14-12.42-33.67-17.52-32.74-14.48-63.39-32.91-94.82-49.83-7.05-3.8-14.25-6.91-21.34-10.71,7.29,18.77,19.59,32.39,36.78,42.29,28.86,16.63,58.93,31.04,87.6,48.09,10.39,6.18,20.76,14.2,34.77,16.97ZM310.83,41.53c49.63,26.85,95.99,52.11,142.56,76.99,11.47,6.13,22.2,1.61,35.65-3.95-45.17-21.3-85.16-45.4-127.94-63.86-14.73-6.35-29.79-14.05-50.26-9.18Z"/><path class="b" d="M1809.29,1393.98c-5.19,.04-11.13-.82-16.82-3.93-24.55-13.45-49.33-26.48-73.81-40.05-35.21-19.52-70.17-39.48-105.34-59.07-31.89-17.76-64.15-34.84-95.82-52.98-38.02-21.77-76.42-42.84-114.5-64.51-39.79-22.64-80.07-44.48-120.18-66.6-30.43-16.78-60.94-33.39-90.97-50.89-29.9-17.42-60.37-33.87-90.77-50.42-5.71-3.11-11.21-6.54-17.27-9.26-23.79-10.72-30.99-33.45-19.46-58.53,22.95-49.93,48.58-98.46,75.62-146.32,15.75-27.89,33.99-54.18,50.21-81.74,12.42-21.1,34.52-31.56,50.21-24.65,14.74,6.49,29.44,13.38,43.23,21.66,31.44,18.87,64.09,35.49,96.16,53.18,36.88,20.34,74,40.24,111.16,60.05,29.62,15.79,58.1,33.6,88.53,47.99,21.89,10.35,42.78,22.84,64.05,34.51,25.35,13.92,50.63,27.96,75.92,41.99,38.91,21.6,78.22,42.46,117.01,64.3,25.88,14.57,51.8,29.52,79.02,41.91,16.34,7.44,31.65,17.26,47.07,26.59,18.54,11.22,24.03,31.78,13.25,50.14-19.62,33.39-40.97,65.83-59.25,99.93-20.77,38.74-43.87,76.26-61.82,116.53-5.39,12.08-12.65,23.47-20.17,34.41-5.63,8.19-14,13.64-25.25,15.78Zm-576.8-675.7c-6.1,2.8-11.16,6.82-15.45,12.25-21.81,27.59-39,58.2-56.23,88.58-21.24,37.47-40.54,76.04-58.28,115.39-15.52,34.42-9.35,31.3,17.48,47.39,34.3,20.56,69.99,38.8,105.02,58.15,38.58,21.32,77.13,42.72,115.63,64.17,30.68,17.09,61.25,34.39,91.93,51.49,38.09,21.22,76.25,42.32,114.38,63.47,49.87,27.65,99.74,55.3,149.61,82.95,30.5,16.91,61.18,33.49,91.42,50.86,16.76,9.63,23.53,8.29,31.8-9.94,15.61-34.43,34.66-67.02,52.33-100.36,22.05-41.59,46.16-81.96,69.43-122.83,6.6-11.6,6.04-18.33-5.39-22.5-16-5.85-29.41-16.1-44.13-23.95-43.83-23.37-87.9-46.38-131.22-70.63-45.46-25.45-91.49-49.83-136.95-75.26-41.81-23.39-84.08-45.95-126.31-68.56-37.89-20.29-76.2-39.79-113.98-60.28-42.07-22.82-83.69-46.47-125.67-69.47-7.93-4.35-15.45-10.13-25.43-10.92Z"/><path class="b" d="M628.19,689.81c.06-4.49,.52-10.06,2.53-16.29,10.29-31.9,24.9-61.8,39.85-91.58,13.99-27.86,30.18-54.49,47.64-80.27,12.14-17.93,23.33-36.48,38.25-52.64,12.53-13.58,29.8-19.48,46.41-10.4,35.84,19.6,71.2,40.08,106.91,59.92,18.38,10.21,37.21,19.64,55.62,29.8,8.51,4.7,16.3,10.54,22.18,18.55,7.98,10.87,8.17,20.13,.39,30.91-18.26,25.29-37.44,50.04-53.27,76.92-20.57,34.93-41.98,69.44-58.46,106.66-6,13.56-13.31,26.51-19.63,39.97-8.53,18.15-25.53,22.23-44.17,12.47-38.61-20.21-75.77-43.05-114.09-63.73-14.84-8.01-28.52-17.86-43.75-25.15-14.05-6.72-25.01-16.62-26.41-35.14Zm184.22,2.68c-.72-3.16-.47-6.21,.88-9.19,12.19-26.95,23.95-54.19,41.22-78.39,11.64-16.31,24.92-18.11,43.48-8.67,8,4.07,14.76,14.13,23.75,11.72,8.54-2.29,11.39-13.83,18.39-19.95,2.44-2.13,3.78-5.79,5.36-8.98,2.83-5.73,10.69-9.82,10.15-16.19-.68-8.03-10.63-6.19-16.05-9.59-27.63-17.3-57.54-30.67-85.05-48.3-4.59-2.94-9.07-3.45-14.11,2.9-28.28,35.65-54.42,72.78-76.89,112.28-16.64,29.25-31.33,59.6-43.54,91.09-3.08,7.93,.58,12.71,6.23,15.39,30.39,14.39,59.51,31.04,88.32,48.29,10.29,6.17,15.32,4.69,20.86-6.02,3.81-7.36,7.04-14.97,11.07-22.27,9.32-16.91,8.77-17.06-8.35-27.75-6.1-3.81-11.39-9.02-17.7-12.37-6.09-3.23-7.27-8.24-8-14Zm-116.11,16.86c4.31-16.92,13.02-30.79,19.79-45.55,12.78-27.86,26.94-55.18,43.4-80.82,19.14-29.8,39.03-59.44,63.28-85.61,4.99-5.38,3.32-8.39-1.92-11.12-9.49-4.95-19.88-8.61-28.43-14.81-6.63-4.8-9.16-2.99-13.82,1.94-9.88,10.46-17.61,22.54-25.93,34.06-13.38,18.53-25.86,37.83-37.16,57.7-16.32,28.68-30.32,58.53-43.4,88.93-13.53,31.44-14.54,32.15,12.93,49.91,3.01,1.95,6.52,3.15,11.26,5.39Zm211.24-74.04c-4.89-6.74-12.83-9.11-19.41-13.51-8.23-5.51-12.43-3.3-17.73,3.73-11.76,15.57-18.07,34.06-28.13,50.52-2.14,3.5-4.89,8.71,.69,12.49,7.28,4.94,14.49,10,21.99,14.59,4.09,2.51,4.68-1.34,6.22-4.06,8.9-15.7,18.36-31.09,26.99-46.93,3.03-5.57,8.05-10.05,9.38-16.83Z"/></svg>